{
  "accessors": [
    {
      "bufferView": 1,
      "componentType": 5126,
      "count": 864,
      "max": [
        2.3042600154876709,
        2.3824601173400879,
        0.15121999382972717
      ],
      "min": [
        -2.7947099208831787,
        -2.811729907989502,
        -4.1543798446655273
      ],
      "type": "VEC3"
    },
    {
      "bufferView": 1,
      "byteOffset": 10368,
      "componentType": 5126,
      "count": 864,
      "max": [
        0.97508358955383301,
        0.98232001066207886,
        1
      ],
      "min": [
        -0.99407261610031128,
        -0.9833754301071167,
        -1
      ],
      "type": "VEC3"
    },
    {
      "bufferView": 0,
      "componentType": 5125,
      "count": 1620,
      "max": [
        863
      ],
      "min": [
        0
      ],
      "type": "SCALAR"
    },
    {
      "bufferView": 1,
      "byteOffset": 20736,
      "componentType": 5126,
      "count": 298,
      "max": [
        1.1224499940872192,
        1.0216399431228638,
        -2.5821900367736816
      ],
      "min": [
        -1.3166699409484863,
        -1.593250036239624,
        -8.2738399505615234
      ],
      "type": "VEC3"
    },
    {
      "bufferView": 1,
      "byteOffset": 24312,
      "componentType": 5126,
      "count": 298,
      "max": [
        0.94436997175216675,
        0.9319722056388855,
        1
      ],
      "min": [
        -0.94593977928161621,
        -0.90436601638793945,
        -1
      ],
      "type": "VEC3"
    },
    {
      "bufferView": 0,
      "byteOffset": 6480,
      "componentType": 5125,
      "count": 450,
      "max": [
        297
      ],
      "min": [
        0
      ],
      "type": "SCALAR"
    },
    {
      "bufferView": 1,
      "byteOffset": 27888,
      "componentType": 5126,
      "count": 480,
      "max": [
        1.2858799695968628,
        0.85063999891281128,
        1.7594000101089478
      ],
      "min": [
        -1.7072700262069702,
        -2.0239100456237793,
        -1.3389500379562378
      ],
      "type": "VEC3"
    },
    {
      "bufferView": 1,
      "byteOffset": 33648,
      "componentType": 5126,
      "count": 480,
      "max": [
        0.99910926818847656,
        0.97159940004348755,
        0.99903976917266846
      ],
      "min": [
        -0.99910926818847656,
        -0.97159940004348755,
        -0.99903976917266846
      ],
      "type": "VEC3"
    },
    {
      "bufferView": 0,
      "byteOffset": 8280,
      "componentType": 5125,
      "count": 480,
      "max": [
        479
      ],
      "min": [
        0
      ],
      "type": "SCALAR"
    },
    {
      "bufferView": 1,
      "byteOffset": 39408,
      "componentType": 5126,
      "count": 298,
      "max": [
        2.3331699371337891,
        -0.15897999703884125,
        0.62436002492904663
      ],
      "min": [
        -0.9598199725151062,
        -1.4450600147247314,
        -2.6272399425506592
      ],
      "type": "VEC3"
    },
    {
      "bufferView": 1,
      "byteOffset": 42984,
      "componentType": 5126,
      "count": 298,
      "max": [
        0.97426849603652954,
        0.95038080215454102,
        0.96382206678390503
      ],
      "min": [
        -0.96047735214233398,
        -0.9294094443321228,
        -0.98551797866821289
      ],
      "type": "VEC3"
    },
    {
      "bufferView": 0,
      "byteOffset": 10200,
      "componentType": 5125,
      "count": 450,
      "max": [
        297
      ],
      "min": [
        0
      ],
      "type": "SCALAR"
    },
    {
      "bufferView": 1,
      "byteOffset": 46560,
      "componentType": 5126,
      "count": 382,
      "max": [
        1.8449399471282959,
        1.7094199657440186,
        7.0319700241088867
      ],
      "min": [
        -1.8729100227355957,
        -2.0295701026916504,
        -1.542199969291687
      ],
      "type": "VEC3"
    },
    {
      "bufferView": 1,
      "byteOffset": 51144,
      "componentType": 5126,
      "count": 382,
      "max": [
        0.98000645637512207,
        0.95258349180221558,
        1
      ],
      "min": [
        -0.930885910987854,
        -0.98746985197067261,
        -1
      ],
      "type": "VEC3"
    },
    {
      "bufferView": 0,
      "byteOffset": 12000,
      "componentType": 5125,
      "count": 570,
      "max": [
        381
      ],
      "min": [
        0
      ],
      "type": "SCALAR"
    },
    {
      "bufferView": 1,
      "byteOffset": 55728,
      "componentType": 5126,
      "count": 1364,
      "max": [
        4.590050220489502,
        3.6122100353240967,
        11.231670379638672
      ],
      "min": [
        -4.6721301078796387,
        -4.0802798271179199,
        4.0746498107910156
      ],
      "type": "VEC3"
    },
    {
      "bufferView": 1,
      "byteOffset": 72096,
      "componentType": 5126,
      "count": 1364,
      "max": [
        0.9886670708656311,
        0.96999496221542358,
        0.99518430233001709
      ],
      "min": [
        -0.98612082004547119,
        -0.99830740690231323,
        -0.96759110689163208
      ],
      "type": "VEC3"
    },
    {
      "bufferView": 0,
      "byteOffset": 14280,
      "componentType": 5125,
      "count": 2070,
      "max": [
        1363
      ],
      "min": [
        0
      ],
      "type": "SCALAR"
    },
    {
      "bufferView": 1,
      "byteOffset": 88464,
      "componentType": 5126,
      "count": 710,
      "max": [
        2.164639949798584,
        3.2514100074768066,
        10.184659957885742
      ],
      "min": [
        -4.2005300521850586,
        -2.8256599903106689,
        -1.542199969291687
      ],
      "type": "VEC3"
    },
    {
      "bufferView": 1,
      "byteOffset": 96984,
      "componentType": 5126,
      "count": 710,
      "max": [
        0.99388080835342407,
        0.98456519842147827,
        1
      ],
      "min": [
        -0.99238348007202148,
        -0.97314393520355225,
        -1
      ],
      "type": "VEC3"
    },
    {
      "bufferView": 0,
      "byteOffset": 22560,
      "componentType": 5125,
      "count": 1050,
      "max": [
        709
      ],
      "min": [
        0
      ],
      "type": "SCALAR"
    },
    {
      "bufferView": 1,
      "byteOffset": 105504,
      "componentType": 5126,
      "count": 1023,
      "max": [
        1.05253005027771,
        3.0742599964141846,
        1.1536300182342529
      ],
      "min": [
        -2.3945200443267822,
        -1,
        -1.2676600217819214
      ],
      "type": "VEC3"
    },
    {
      "bufferView": 1,
      "byteOffset": 117780,
      "componentType": 5126,
      "count": 1023,
      "max": [
        1,
        0.97492825984954834,
        1
      ],
      "min": [
        -1,
        -0.97492825984954834,
        -1
      ],
      "type": "VEC3"
    },
    {
      "bufferView": 0,
      "byteOffset": 26760,
      "componentType": 5125,
      "count": 1944,
      "max": [
        1022
      ],
      "min": [
        0
      ],
      "type": "SCALAR"
    },
    {
      "bufferView": 1,
      "byteOffset": 130056,
      "componentType": 5126,
      "count": 716,
      "max": [
        0.9602699875831604,
        2.2475500106811523,
        0.35131001472473145
      ],
      "min": [
        -1.4852099418640137,
        -0.47859999537467957,
        -3.8227300643920898
      ],
      "type": "VEC3"
    },
    {
      "bufferView": 1,
      "byteOffset": 138648,
      "componentType": 5126,
      "count": 716,
      "max": [
        0.99419689178466797,
        0.98706328868865967,
        0.97847539186477661
      ],
      "min": [
        -0.99674153327941895,
        -0.98037624359130859,
        -0.97070753574371338
      ],
      "type": "VEC3"
    },
    {
      "bufferView": 0,
      "byteOffset": 34536,
      "componentType": 5125,
      "count": 1050,
      "max": [
        715
      ],
      "min": [
        0
      ],
      "type": "SCALAR"
    },
    {
      "bufferView": 1,
      "byteOffset": 147240,
      "componentType": 5126,
      "count": 223,
      "max": [
        1.3978400230407715,
        1.3970400094985962,
        0
      ],
      "min": [
        -1.3971999883651733,
        -1.3980000019073486,
        -0.43399998545646667
      ],
      "type": "VEC3"
    },
    {
      "bufferView": 1,
      "byteOffset": 149916,
      "componentType": 5126,
      "count": 223,
      "max": [
        0.9592745304107666,
        0.95579701662063599,
        1
      ],
      "min": [
        -0.95995670557022095,
        -0.95745235681533813,
        -0.99995589256286621
      ],
      "type": "VEC3"
    },
    {
      "bufferView": 0,
      "byteOffset": 38736,
      "componentType": 5125,
      "count": 858,
      "max": [
        222
      ],
      "min": [
        0
      ],
      "type": "SCALAR"
    },
    {
      "bufferView": 1,
      "byteOffset": 152592,
      "componentType": 5126,
      "count": 824,
      "max": [
        1.3978400230407715,
        1.3970400094985962,
        0
      ],
      "min": [
        -1.3971999883651733,
        -1.3980000019073486,
        -1.2077800035476685
      ],
      "type": "VEC3"
    },
    {
      "bufferView": 1,
      "byteOffset": 162480,
      "componentType": 5126,
      "count": 824,
      "max": [
        0.95458173751831055,
        0.9537818431854248,
        1
      ],
      "min": [
        -0.95511740446090698,
        -0.95209836959838867,
        -0.99989110231399536
      ],
      "type": "VEC3"
    },
    {
      "bufferView": 0,
      "byteOffset": 42168,
      "componentType": 5125,
      "count": 1242,
      "max": [
        823
      ],
      "min": [
        0
      ],
      "type": "SCALAR"
    }
  ],
  "asset": {
    "extras": {
      "author": "reymarch (https://sketchfab.com/reymarch)",
      "license": "CC-BY-4.0 (http://creativecommons.org/licenses/by/4.0/)",
      "source": "https://sketchfab.com/models/2e70c34af8994852acd4b9ffce596336",
      "title": "Low Poly Trees"
    },
    "generator": "Sketchfab-3.18.2",
    "version": "2.0"
  },
  "bufferViews": [
    {
      "buffer": 0,
      "byteLength": 47136,
      "byteOffset": 0,
      "name": "floatBufferViews",
      "target": 34963
    },
    {
      "buffer": 0,
      "byteLength": 172368,
      "byteOffset": 47136,
      "byteStride": 12,
      "name": "floatBufferViews",
      "target": 34962
    }
  ],
  "buffers": [
    {
      "byteLength": 219504,
      "uri": "scene.bin"
    }
  ],
  "materials": [
    {
      "doubleSided": true,
      "emissiveFactor": [
        0,
        0,
        0
      ],
      "name": "Material.003",
      "pbrMetallicRoughness": {
        "baseColorFactor": [
          0.59784488039999995,
          0.43316406419999998,
          0.1715322715,
          1
        ],
        "metallicFactor": 0,
        "roughnessFactor": 0.59999999999999998
      }
    },
    {
      "doubleSided": true,
      "emissiveFactor": [
        0,
        0,
        0
      ],
      "name": "Material.004",
      "pbrMetallicRoughness": {
        "baseColorFactor": [
          0.1651465775,
          0.31545681939999998,
          0.086289770399999993,
          1
        ],
        "metallicFactor": 0,
        "roughnessFactor": 0.59999999999999998
      }
    },
    {
      "doubleSided": true,
      "emissiveFactor": [
        0,
        0,
        0
      ],
      "name": "Material.002",
      "pbrMetallicRoughness": {
        "baseColorFactor": [
          0.13370587759999999,
          0.2806968849,
          0.083951070000000003,
          1
        ],
        "metallicFactor": 0,
        "roughnessFactor": 0.59999999999999998
      }
    },
    {
      "doubleSided": true,
      "emissiveFactor": [
        0,
        0,
        0
      ],
      "name": "Material.001",
      "pbrMetallicRoughness": {
        "baseColorFactor": [
          0.1542627969,
          0.032920839200000003,
          0.032920839200000003,
          1
        ],
        "metallicFactor": 0,
        "roughnessFactor": 0.59999999999999998
      }
    }
  ],
  "meshes": [
    {
      "name": "Plane.007",
      "primitives": [
        {
          "attributes": {
            "NORMAL": 1,
            "POSITION": 0
          },
          "indices": 2,
          "material": 2,
          "mode": 4
        }
      ]
    },
    {
      "name": "Plane.007",
      "primitives": [
        {
          "attributes": {
            "NORMAL": 4,
            "POSITION": 3
          },
          "indices": 5,
          "material": 3,
          "mode": 4
        }
      ]
    },
    {
      "name": "Icosphere.003",
      "primitives": [
        {
          "attributes": {
            "NORMAL": 7,
            "POSITION": 6
          },
          "indices": 8,
          "material": 2,
          "mode": 4
        }
      ]
    },
    {
      "name": "Icosphere.003",
      "primitives": [
        {
          "attributes": {
            "NORMAL": 10,
            "POSITION": 9
          },
          "indices": 11,
          "material": 3,
          "mode": 4
        }
      ]
    },
    {
      "name": "Cylinder.001",
      "primitives": [
        {
          "attributes": {
            "NORMAL": 13,
            "POSITION": 12
          },
          "indices": 14,
          "material": 3,
          "mode": 4
        }
      ]
    },
    {
      "name": "Cylinder.001",
      "primitives": [
        {
          "attributes": {
            "NORMAL": 16,
            "POSITION": 15
          },
          "indices": 17,
          "material": 2,
          "mode": 4
        }
      ]
    },
    {
      "name": "Cylinder.000",
      "primitives": [
        {
          "attributes": {
            "NORMAL": 19,
            "POSITION": 18
          },
          "indices": 20,
          "material": 3,
          "mode": 4
        }
      ]
    },
    {
      "name": "Cylinder.003",
      "primitives": [
        {
          "attributes": {
            "NORMAL": 22,
            "POSITION": 21
          },
          "indices": 23,
          "material": 2,
          "mode": 4
        }
      ]
    },
    {
      "name": "Cylinder.003",
      "primitives": [
        {
          "attributes": {
            "NORMAL": 25,
            "POSITION": 24
          },
          "indices": 26,
          "material": 3,
          "mode": 4
        }
      ]
    },
    {
      "name": "Plane",
      "primitives": [
        {
          "attributes": {
            "NORMAL": 28,
            "POSITION": 27
          },
          "indices": 29,
          "material": 1,
          "mode": 4
        }
      ]
    },
    {
      "name": "Plane.001",
      "primitives": [
        {
          "attributes": {
            "NORMAL": 31,
            "POSITION": 30
          },
          "indices": 32,
          "material": 0,
          "mode": 4
        }
      ]
    }
  ],
  "nodes": [
    {
      "children": [
        1
      ],
      "name": "RootNode (gltf orientation matrix)",
      "rotation": [
        -0.70710678118654746,
        -0,
        -0,
        0.70710678118654757
      ]
    },
    {
      "children": [
        2
      ],
      "name": "RootNode (model correction matrix)"
    },
    {
      "children": [
        3,
        5,
        7,
        10,
        13,
        16,
        18,
        21,
        23
      ],
      "name": "Root"
    },
    {
      "children": [
        4
      ],
      "matrix": [
        -0.091790000000000038,
        0.52492000000000005,
        0.84619000000000011,
        0,
        -0.90127000000000002,
        0.31755000000000005,
        -0.29475000000000001,
        0,
        -0.42342000000000007,
        -0.78970000000000007,
        0.44394000000000006,
        0,
        -9.7058300000000006,
        -29.472999999999999,
        19.040029999999998,
        1
      ],
      "name": "Lamp"
    },
    {
      "name": "Lamp"
    },
    {
      "children": [
        6
      ],
      "matrix": [
        0.63514000000000015,
        0.74750000000000005,
        0.19452000000000003,
        0,
        -0.56368000000000007,
        0.62075000000000014,
        -0.54491000000000001,
        0,
        -0.52807000000000004,
        0.23645000000000002,
        0.81562000000000012,
        0,
        -9.7058300000000006,
        33.38552,
        19.040029999999998,
        1
      ],
      "name": "Lamp.001"
    },
    {
      "name": "Lamp.001"
    },
    {
      "children": [
        8,
        9
      ],
      "matrix": [
        1.6861300000000001,
        0,
        0,
        0,
        0,
        1.4188499999999999,
        0,
        0,
        0,
        0,
        1.6861300000000001,
        0,
        -3.7042200000000003,
        -14.496450000000001,
        12.6326,
        1
      ],
      "name": "Plane.007"
    },
    {
      "mesh": 0,
      "name": "Plane.007"
    },
    {
      "mesh": 1,
      "name": "Plane.007"
    },
    {
      "children": [
        11,
        12
      ],
      "matrix": [
        2.1607500000000002,
        0,
        -2.0925699999999998,
        0,
        -0,
        3.0079300000000004,
        0,
        0,
        2.0925699999999998,
        0,
        2.1607500000000002,
        0,
        8.51966,
        -0.63190000000000013,
        7.0499700000000001,
        1
      ],
      "name": "Icosphere.003"
    },
    {
      "mesh": 2,
      "name": "Icosphere.003"
    },
    {
      "mesh": 3,
      "name": "Icosphere.003"
    },
    {
      "children": [
        14,
        15
      ],
      "matrix": [
        1.06481,
        0,
        0,
        0,
        0,
        1.06481,
        0,
        0,
        0,
        0,
        1.06481,
        0,
        -3.8166999999999995,
        8.5483199999999968,
        0.24587000000000001,
        1
      ],
      "name": "Cylinder.001"
    },
    {
      "mesh": 4,
      "name": "Cylinder.001"
    },
    {
      "mesh": 5,
      "name": "Cylinder.001"
    },
    {
      "children": [
        17
      ],
      "matrix": [
        0.15388000000000002,
        0.98809000000000002,
        0,
        0,
        -0.98809000000000002,
        0.15388000000000002,
        0,
        0,
        0,
        0,
        1,
        0,
        -4.4478499999999999,
        -2.6227800000000001,
        0,
        1
      ],
      "name": "Cylinder.000"
    },
    {
      "mesh": 6,
      "name": "Cylinder.000"
    },
    {
      "children": [
        19,
        20
      ],
      "matrix": [
        2.3639800000000002,
        -1.2808599999999999,
        -0.43561000000000005,
        0,
        1.3527500000000001,
        2.25116,
        0.72189000000000014,
        0,
        0.020560000000000005,
        -0.84288000000000007,
        2.58996,
        0,
        -15.624099999999999,
        -5.8841499999999991,
        8.332530000000002,
        1
      ],
      "name": "Cylinder.003"
    },
    {
      "mesh": 7,
      "name": "Cylinder.003"
    },
    {
      "mesh": 8,
      "name": "Cylinder.003"
    },
    {
      "children": [
        22
      ],
      "matrix": [
        13.375060000000001,
        0,
        0,
        0,
        0,
        13.375060000000001,
        0,
        0,
        0,
        0,
        13.375060000000001,
        0,
        -4.0620399999999997,
        -3.5560499999999995,
        -0.91820000000000002,
        1
      ],
      "name": "Plane"
    },
    {
      "mesh": 9,
      "name": "Plane"
    },
    {
      "children": [
        24
      ],
      "matrix": [
        12.228029999999999,
        0,
        0,
        0,
        0,
        12.228029999999999,
        0,
        0,
        0,
        0,
        12.228029999999999,
        0,
        -4.0620399999999997,
        -3.5560499999999995,
        -2.75508,
        1
      ],
      "name": "Plane.001"
    },
    {
      "mesh": 10,
      "name": "Plane.001"
    }
  ],
  "scene": 0,
  "scenes": [
    {
      "name": "OSG_Scene",
      "nodes": [
        0
      ]
    }
  ]
}

